<?xml version="1.0" standalone="no"?><!DOCTYPE svg PUBLIC "-//W3C//DTD SVG 1.1//EN" "http://www.w3.org/Graphics/SVG/1.1/DTD/svg11.dtd"><svg t="1645105365783" class="icon" viewBox="0 0 1181 1024" version="1.1" xmlns="http://www.w3.org/2000/svg" p-id="2062" xmlns:xlink="http://www.w3.org/1999/xlink" width="230.6640625" height="200"><defs><style type="text/css"></style></defs><path d="M819.593846 897.969231v-55.729231c0-18.550154 12.445538-37.139692 31.113846-37.139692 15.517538 0 31.113846 18.589538 31.113846 37.139692v55.768615h-62.227692z m124.376616 0v-121.659077c0-16.896 12.445538-33.792 31.113846-33.792 15.517538 0 31.113846 16.935385 31.113846 33.792v121.698461h-62.227692z m-197.71077 49.348923H1150.424615a31.113846 31.113846 0 1 1 0 62.188308H715.145846a30.995692 30.995692 0 0 1-31.113846-31.113847v-342.016a31.113846 31.113846 0 0 1 62.227692 0v310.941539z m322.087385-49.309539v-204.406153c0-18.589538 12.445538-37.179077 31.113846-37.179077 15.517538 0 31.074462 18.589538 31.074462 37.179077v204.406153h-62.188308zM368.64 165.257846h421.415385c29.380923 0 54.784 20.598154 60.84923 49.388308l39.148308 186.564923a62.188308 62.188308 0 0 1-60.849231 74.948923H329.452308a62.188308 62.188308 0 0 1-60.849231-74.948923l39.187692-186.564923A62.188308 62.188308 0 0 1 368.64 165.257846z m-39.187692 248.713846h499.790769l-39.227077-186.525538H368.64l-39.148308 186.525538z" fill="#6189FF" p-id="2063"></path><path d="M563.869538 865.28H310.153846c-19.219692 0-36.982154 17.329231-36.982154 36.470154-3.820308 30.641231-26.899692 49.742769-53.799384 49.742769-30.72 0-53.799385-22.961231-53.799385-53.563077 0-15.320615-9.176615-32.610462-24.536615-36.430769-42.299077-7.68-85.031385-66.323692-81.171693-108.425846l11.539693-160.689231c-3.859692-42.141538 37.809231-80.384 80.068923-91.844923 15.36-3.859692 23.079385-15.36 23.079384-30.641231v-11.460923l53.799385-260.253538c11.539692-61.203692 83.259077-120.832 144.777846-120.832h415.113846c57.698462 0 126.897231 63.015385 142.257231 124.219077l53.799385 271.753846c0 7.640615 102.951385 27.175385 165.29723 130.520615v-15.320615c-3.820308-65.063385-46.119385-122.446769-103.778461-149.267693l-53.799385-256.393846c-15.36-91.805538-111.458462-168.369231-199.916307-168.369231H373.129846C280.891077 14.493538 188.612923 91.057231 169.353846 182.902154L115.593846 443.076923C57.895385 469.897846 15.635692 527.320615 11.815385 592.384l-11.539693 164.548923c-3.859692 68.883692 34.579692 130.087385 92.23877 156.868923 15.36 57.422769 61.518769 95.704615 126.818461 95.704616 53.838769 0 99.997538-34.461538 119.217231-84.204308h245.996308c-11.539692-22.961231-16.817231-33.201231-20.676924-59.982769z" fill="#6189FF" p-id="2064"></path><path d="M214.409846 615.187692c-15.202462 15.281231-22.843077 34.382769-22.843077 57.304616 0 22.921846 7.640615 42.023385 22.843077 57.304615 15.202462 15.281231 34.225231 22.921846 57.028923 22.921846 19.022769 0 41.826462-7.640615 57.028923-22.921846 15.202462-15.281231 22.803692-34.382769 22.803693-57.304615 0-22.921846-7.601231-42.023385-22.843077-57.344-15.163077-15.281231-34.185846-22.921846-56.989539-22.921846-22.843077 0-41.826462 11.460923-57.028923 22.921846z" fill="#6189FF" p-id="2065"></path></svg>