<?xml version="1.0" standalone="no"?><!DOCTYPE svg PUBLIC "-//W3C//DTD SVG 1.1//EN" "http://www.w3.org/Graphics/SVG/1.1/DTD/svg11.dtd"><svg t="1645105446514" class="icon" viewBox="0 0 1024 1024" version="1.1" xmlns="http://www.w3.org/2000/svg" p-id="2210" xmlns:xlink="http://www.w3.org/1999/xlink" width="200" height="200"><defs><style type="text/css"></style></defs><path d="M563.927 976.998h-38.502c-10.24 0-16.384-4.096-19.661-7.782-7.373-7.782-7.373-18.022-7.373-19.66v-30.311h-342.44v31.13c0 18.022-13.927 27.033-27.444 27.033H83.04c-10.24 0-16.384-4.506-20.07-7.782-7.373-7.783-7.373-18.023-7.373-19.661v-53.658c-5.325-9.011-17.613-33.177-17.613-67.174 0-38.912 33.997-102.405 40.141-113.874 4.506-18.842 38.502-154.015 129.439-154.015h237.163c73.728 0 115.513 122.066 122.066 142.956 6.554 10.65 41.78 70.041 41.78 124.114 0 43.417-10.65 63.078-18.023 71.68v49.97c0.41 18.842-13.517 27.034-26.624 27.034zM524.6 950.784h40.141v-65.126l5.735-2.458c2.048-2.048 12.288-14.746 12.288-55.296 0-50.79-38.503-111.007-38.503-111.826l-0.82-1.638-0.409-1.639c-10.65-35.225-49.561-126.162-97.49-126.162H208.384c-74.547 0-103.634 133.535-104.044 135.173l-0.41 2.048-0.818 1.639c-10.65 18.841-38.093 73.728-38.093 102.815 0 33.996 15.155 55.705 15.155 55.705l2.458 3.277v63.078h45.875c0.41 0 0.82 0 1.229-0.41v-58.162H524.19v57.344c0 1.228 0 1.228 0.41 1.638zM92.872 706.657h468.597v26.215H92.872v-26.215z m140.498 83.15h184.325v26.213H233.37v-26.214z m0 47.922h184.325v26.215H233.37v-26.215z m-84.793 14.746c-27.033 0-49.561-22.119-49.561-49.562 0-27.033 22.118-49.561 49.561-49.561 27.034 0 49.562 22.118 49.562 49.561-0.41 27.443-22.528 49.562-49.562 49.562z m0-72.5c-12.697 0-22.937 10.24-22.937 22.938s10.24 22.938 22.937 22.938 22.938-10.24 22.938-22.938c0-12.288-10.24-22.937-22.938-22.937z m350.628 72.5c-27.443 0-49.561-22.119-49.561-49.562 0-27.033 22.118-49.561 49.561-49.561 27.034 0 49.562 22.118 49.562 49.561s-22.528 49.562-49.562 49.562z m0-72.5c-12.697 0-22.937 10.24-22.937 22.938s10.24 22.938 22.937 22.938 22.938-10.24 22.938-22.938c0-12.288-10.24-22.937-22.938-22.937z m65.541-52.019l-7.782-24.985c20.48-6.144 40.14-19.251 38.502-24.986-1.638-5.325-27.853-6.553-53.248-0.41l-6.144-25.395c12.288-2.867 74.547-16.384 84.787 18.432 10.24 35.221-44.646 54.068-56.115 57.344zM85.5 724.68c-11.06-3.277-66.355-22.528-56.115-57.344 10.24-34.407 72.499-21.3 84.787-18.432l-6.144 25.804c-25.805-6.144-51.61-4.915-53.248 0.41-1.639 5.734 18.022 18.432 38.502 24.986L85.5 724.68z m477.547-119.604l52.368-270.668 62.904 182.855c3.948 11.413 14.485 19.308 26.476 19.748a29.235 29.235 0 0 0 27.94-17.556l39.787-90.988 58.808 159.893a29.594 29.594 0 0 0 23.552 18.872 29.158 29.158 0 0 0 27.648-11.848l39.788-55.147h20.275a374.016 374.016 0 0 0 2.396-31.893c0.338-12.324 8.407-22.65 19.39-26.624h-56.986a29.394 29.394 0 0 0-23.7 12.14l-16.384 22.676-64.953-176.42a29.066 29.066 0 0 0-26.624-19.164 29.43 29.43 0 0 0-27.648 17.557l-38.912 88.94-74.02-215.333c-4.244-12.58-16.532-20.628-29.696-19.747a29.082 29.082 0 0 0-26.624 23.552l-64.491 332.8c16.169 12.431 32.727 30.515 48.706 56.355zM1003.51 510.1c0.44-16.092-12.288-29.696-28.38-30.136a29.215 29.215 0 0 0-10.747 1.756h7.234c16.092 0 29.256 13.164 29.256 29.256s-13.164 29.256-29.256 29.256h-29.02c-9.846 84.997-48.456 163.579-110.536 223.964-52.49 51.062-117.596 84.895-188.073 98.59-2.76 19.308-7.982 35.687-15.703 48.922v12.77c91.874-11.879 177.224-52.783 244.593-118.447 80.748-78.407 127.12-183.587 130.632-295.93z m-58.517-1.756a376.284 376.284 0 0 1-2.396 31.893h29.02c16.092 0 29.256-13.164 29.256-29.256s-13.164-29.256-29.256-29.256h-7.234c-10.983 3.968-19.052 14.295-19.39 26.62z m-802.816 0.584c0-16.092 13.164-29.256 29.256-29.256h28.206c4.147-93.26 42.363-180.434 108.718-246.784 70.508-70.507 164.132-109.276 263.752-109.276 83.092 0 161.643 26.624 227.328 77.24 63.636 49.004 110.443 118.2 131.947 195.144 4.245 15.652 20.48 24.725 35.989 20.332 15.652-4.245 24.724-20.48 20.331-35.989-24.868-89.088-78.996-169.252-152.576-225.863-75.924-58.517-166.912-89.38-263.02-89.38-115.27 0-223.672 44.907-305.151 126.392-81.48 81.48-126.387 189.88-126.387 305.152 0 4.096 0.148 8.484 0.291 13.604a29.358 29.358 0 0 0 14.715 24.494l1.214-0.543c-8.71-5.084-14.613-14.51-14.613-25.267z m0 0c0 10.757 5.904 20.183 14.613 25.267a124.416 124.416 0 0 1 38.579-10.096 29.338 29.338 0 0 0 4.009-15.611c-0.149-4.537-0.149-8.34-0.149-11.848 0-5.678 0.164-11.33 0.415-16.968h-28.206c-16.092 0-29.26 13.164-29.26 29.256z m57.2-0.44a29.348 29.348 0 0 1-4.008 15.61 129.126 129.126 0 0 1 12.196-0.593h134.384l23.757-89.329 30.08 89.329h48.942c4.132 0 8.474 0.245 12.99 0.819l-67.44-200.74a29.164 29.164 0 0 0-28.673-19.896c-12.872 0.292-23.992 9.216-27.356 21.652l-50.028 188.124-17.556-22.528a29.553 29.553 0 0 0-23.112-11.264H199.64a381.389 381.389 0 0 0-0.415 16.968c0.005 3.512 0.005 7.316 0.154 11.848z" p-id="2211"></path></svg>