<?xml version="1.0" standalone="no"?><!DOCTYPE svg PUBLIC "-//W3C//DTD SVG 1.1//EN" "http://www.w3.org/Graphics/SVG/1.1/DTD/svg11.dtd"><svg t="1645105755865" class="icon" viewBox="0 0 1024 1024" version="1.1" xmlns="http://www.w3.org/2000/svg" p-id="5685" xmlns:xlink="http://www.w3.org/1999/xlink" width="200" height="200"><defs><style type="text/css"></style></defs><path d="M1014.081148 701.424909l-9.358155-27.051715a41.319067 41.319067 0 0 0-35.796221-27.051716h-31.500675a2368.840508 2368.840508 0 0 0-46.023713-119.508242 101.303306 101.303306 0 0 0-73.228841-39.83608 661.565306 661.565306 0 0 0-156.276074-10.841141 667.037014 667.037014 0 0 0-156.276075 10.841141 114.241083 114.241083 0 0 0-74.200453 41.319067c-5.420571 10.841141-26.028967 61.364951-46.023713 118.485492h-31.347262a40.552005 40.552005 0 0 0-35.796221 27.051716l-8.386543 26.540341a22.807307 22.807307 0 0 0 17.69356 31.960912h30.9893c-8.335406 24.085743-13.755976 35.387122-13.755976 35.387121a97.161172 97.161172 0 0 0-3.937584 27.051716v200.612251a26.847166 26.847166 0 0 0 26.540341 27.051716h74.711827a26.949441 26.949441 0 0 0 27.051716-27.051716v-37.176932h387.263976v37.381482a26.949441 26.949441 0 0 0 26.949441 27.000578h74.66069a26.949441 26.949441 0 0 0 27.051716-27.051715v-200.612252a97.161172 97.161172 0 0 0-3.937585-27.051715s-5.420571-11.199103-14.420763-35.387122h30.682475a22.091382 22.091382 0 0 0 16.721949-31.960912zM504.445233 862.81473h-35.387122c-31.960912 0-63.410449-5.113746-63.410449-27.051716V808.813573a22.960719 22.960719 0 0 1 28.534702-27.051716 199.43609 199.43609 0 0 1 61.927463 22.602757 58.75694 58.75694 0 0 1 43.722527 35.387122c-0.971612 15.750337-8.84678 23.114131-35.387121 23.114131zM429.784543 676.930067a467.498649 467.498649 0 0 1 43.722527-114.599046c3.42621-8.335406 6.852419-34.926884 188.748361-34.926884s185.782388 30.017688 186.242625 30.682475a644.689944 644.689944 0 0 1 45.716888 118.996867 824.48925 824.48925 0 0 1-231.959513 25.057355 859.825234 859.825234 0 0 1-232.470888-25.057355z m426.588682 185.884663h-35.438259c-27.051716 0-34.875747-7.363794-34.875747-22.602757a60.802439 60.802439 0 0 1 43.722527-35.387122 199.43609 199.43609 0 0 1 61.927463-22.602757 23.011856 23.011856 0 0 1 28.534702 27.051716v26.540341c-0.511375 22.14252-32.421149 27.051716-63.921824 27.051716z m-507.181318-260.136254c15.750337-43.773665 31.449537-82.586996 37.84172-94.911123a129.173221 129.173221 0 0 1 86.013206-58.501253 129.275496 129.275496 0 0 0 12.784365-3.937585 662.025543 662.025543 0 0 1 170.03205-13.295739h2.965973c-0.511375-0.971612-0.511375-1.482986-0.971612-2.454598h30.682476a22.807307 22.807307 0 0 0 17.386736-31.909774l-9.358155-26.540342a41.319067 41.319067 0 0 0-35.796222-27.051715H629.220632a1708.093402 1708.093402 0 0 0-46.023713-119.508242 101.252169 101.252169 0 0 0-72.717466-39.83608 661.667581 661.667581 0 0 0-156.276075-10.790004 667.088151 667.088151 0 0 0-156.276074 10.790004 114.241083 114.241083 0 0 0-74.200453 41.319067c-5.420571 10.790004-26.028967 61.364951-45.716888 118.485492H46.867251a40.603142 40.603142 0 0 0-35.796222 27.051716l-9.358155 26.540341a22.807307 22.807307 0 0 0 17.693561 31.960911H50.344598c-8.335406 24.085743-13.755976 35.387122-13.755977 35.387122a97.161172 97.161172 0 0 0-3.937584 27.051716v200.612251a26.847166 26.847166 0 0 0 26.540341 27.051716h74.711828a26.949441 26.949441 0 0 0 27.051715-27.051716v-37.330345h113.525159a83.047233 83.047233 0 0 1 74.711827-52.109071v-1.022749z m-153.412376-44.233902h-35.335984c-31.960912 0-63.870686-4.448959-63.870686-27.051715v-26.540342a22.960719 22.960719 0 0 1 28.483564-27.051715 199.43609 199.43609 0 0 1 61.927463 22.602756 58.75694 58.75694 0 0 1 43.722527 35.387122c0 15.750337-7.875169 22.602757-34.875747 22.602757zM121.579078 372.559911a467.907749 467.907749 0 0 1 43.722527-114.547908c3.42621-8.335406 6.903557-34.926884 188.748361-34.926884s185.782388 30.017688 186.242625 30.682475a661.156206 661.156206 0 0 1 45.716889 118.996867 824.386975 824.386975 0 0 1-231.959514 25.057355 830.779157 830.779157 0 0 1-232.470888-25.057355z m358.780411-287.136831c3.42621-8.335406 6.903557-34.926884 188.748361-34.926885s185.782388 30.017688 186.242626 30.682475a660.235732 660.235732 0 0 1 45.716888 118.996867 824.540387 824.540387 0 0 1-231.959514 25.057355c-9.358155 0-17.182186-0.511375-26.028966-0.511374 10.227492 25.057355 20.148159 50.626084 29.966551 76.194813h0.971611a83.456333 83.456333 0 0 1 76.706189 56.251205l9.358155 26.540341a70.671968 70.671968 0 0 1-1.943224 51.137459 415.338441 415.338441 0 0 1 80.132398 10.227492l7.875169 1.943223a124.059475 124.059475 0 0 1 92.047426 61.978601c2.965973 6.392182 8.335406 20.148159 15.6992 37.841719h10.790004a26.949441 26.949441 0 0 0 27.051715-27.051716V318.967854a97.161172 97.161172 0 0 0-3.937584-27.051715S982.069099 280.61476 973.273456 256.529017h30.682475a22.756169 22.756169 0 0 0 17.693561-31.960912l-9.358155-26.540341a41.319067 41.319067 0 0 0-35.796221-27.051716h-31.705225a2368.840508 2368.840508 0 0 0-46.023713-119.508241 101.405581 101.405581 0 0 0-73.228841-39.836081A661.820993 661.820993 0 0 0 669.056713 0.841723a667.088151 667.088151 0 0 0-156.276075 10.790003 114.292221 114.292221 0 0 0-74.200452 41.319067c-3.937584 8.335406-16.721949 50.165847-31.449538 88.979179 19.636784 0.511375 35.796221 1.482986 50.626085 1.994361 10.790004-26.080104 19.636784-51.137459 22.602756-58.501253z m446.276604 246.840514v27.051715c0 22.14252-31.960912 27.051716-63.921823 27.051716h-35.387122c-27.051716 0-34.875747-7.363794-34.875747-22.602757a60.802439 60.802439 0 0 1 43.722527-35.387121 199.43609 199.43609 0 0 1 61.927463-22.602757 22.653894 22.653894 0 0 1 28.483565 26.540341z m0 0" p-id="5686"></path></svg>