<?xml version="1.0" standalone="no"?><!DOCTYPE svg PUBLIC "-//W3C//DTD SVG 1.1//EN" "http://www.w3.org/Graphics/SVG/1.1/DTD/svg11.dtd"><svg t="1645105586089" class="icon" viewBox="0 0 1024 1024" version="1.1" xmlns="http://www.w3.org/2000/svg" p-id="2506" xmlns:xlink="http://www.w3.org/1999/xlink" width="200" height="200"><defs><style type="text/css"></style></defs><path d="M655.1 586.1C633.7 515.4 570.7 467 498.3 467h-120c-72.4 0-135.3 48.4-156.8 119.1C132.3 598.4 64 668.9 64 751v22.9c0 36.7 32.6 66.6 72.8 66.6h61.4c14.5 28 43.8 47.2 77.4 47.2 33.7 0 62.9-19.2 77.4-47.2h170.5c14.5 28 43.8 47.2 77.4 47.2s62.9-19.2 77.4-47.2h61.4c40.1 0 72.8-29.9 72.8-66.6V751c0.1-82.1-68.2-152.6-157.4-164.9zM275.6 855.8c-30.5 0-55.3-24.8-55.3-55.3 0-30.5 24.8-55.3 55.3-55.3 30.5 0 55.3 24.8 55.3 55.3 0 30.5-24.8 55.3-55.3 55.3z m325.4 0c-30.5 0-55.3-24.8-55.3-55.3 0-30.5 24.8-55.3 55.3-55.3 30.5 0 55.3 24.8 55.3 55.3 0 30.5-24.8 55.3-55.3 55.3z m179.7-81.9c0 19.1-18.3 34.6-40.8 34.6h-52c0.2-2.7 0.4-5.3 0.4-8.1 0-48.1-39.1-87.2-87.2-87.2s-87.2 39.1-87.2 87.2c0 2.7 0.2 5.4 0.4 8.1H362.5c0.2-2.7 0.4-5.3 0.4-8.1 0-48.1-39.1-87.2-87.2-87.2s-87.2 39.1-87.2 87.2c0 2.7 0.2 5.4 0.4 8.1h-52c-22.5 0-40.8-15.5-40.8-34.6V751c0-69 61.2-128 139.4-134.3 6.9-0.6 12.7-5.5 14.3-12.3 14.6-62.1 67.5-105.5 128.7-105.5h120.1c61.2 0 114.1 43.4 128.7 105.5 1.6 6.8 7.4 11.7 14.3 12.3C719.4 623 780.7 682 780.7 751v22.9z" p-id="2507"></path><path d="M494.1 546c34.2 0 64.6 25.3 78.8 63.6h-99.1V546h20.3m0-21.3h-41.6v106.2h148.6c-0.8-2-1.4-4-1.9-6.2-12-58.9-55.2-100-105.1-100zM402.8 546v63.6h-99.1c14.1-38.3 44.6-63.6 78.8-63.6h20.3m21.3-21.3h-41.6c-49.9 0-93.1 41.1-105.1 100-0.4 2.2-1.1 4.2-1.9 6.2h148.6V524.7z" p-id="2508"></path><path d="M747.2 623.4H960v45H747.2z" p-id="2509"></path><path d="M386.1 136.3h45v342.2h-45z" p-id="2510"></path><path d="M728 505.9c-87.5 0-158.6-71.2-158.6-158.6 0-87.4 71.2-158.6 158.6-158.6v48.7c-60.6 0-109.9 49.3-109.9 109.9 0 60.6 49.3 109.9 109.9 109.9 60.6 0 109.9-49.3 109.9-109.9h48.7c0 87.5-71.1 158.6-158.6 158.6z" p-id="2511"></path><path d="M886 336c-1.7-24.2-8.5-47-20-67l-42 24.5c7.3 12.8 11.7 27.3 13.1 42.6H886zM859.2 258.3c-26.7-39.2-70-65.8-119.9-69.3v48.9c32 3.2 59.9 20.1 77.6 44.8l42.3-24.4z" p-id="2512"></path></svg>