<?xml version="1.0" standalone="no"?><!DOCTYPE svg PUBLIC "-//W3C//DTD SVG 1.1//EN" "http://www.w3.org/Graphics/SVG/1.1/DTD/svg11.dtd"><svg t="1645105572213" class="icon" viewBox="0 0 1024 1024" version="1.1" xmlns="http://www.w3.org/2000/svg" p-id="2356" xmlns:xlink="http://www.w3.org/1999/xlink" width="200" height="200"><defs><style type="text/css"></style></defs><path d="M655.2 586.1C633.7 515.4 570.7 467 498.3 467h-120c-72.4 0-135.3 48.4-156.8 119.1C132.3 598.4 64 668.9 64 751v22.9c0 36.7 32.6 66.6 72.8 66.6h61.4c14.5 28 43.8 47.2 77.4 47.2 33.7 0 62.9-19.2 77.4-47.2h170.5c14.5 28 43.8 47.2 77.4 47.2 33.7 0 62.9-19.2 77.4-47.2h61.4c40.1 0 72.8-29.9 72.8-66.6V751c0.1-82.1-68.2-152.6-157.3-164.9zM275.6 855.8c-30.5 0-55.3-24.8-55.3-55.3 0-30.5 24.8-55.3 55.3-55.3 30.5 0 55.3 24.8 55.3 55.3 0 30.5-24.8 55.3-55.3 55.3z m325.4 0c-30.5 0-55.3-24.8-55.3-55.3 0-30.5 24.8-55.3 55.3-55.3 30.5 0 55.3 24.8 55.3 55.3 0 30.5-24.8 55.3-55.3 55.3z m179.7-81.9c0 19.1-18.3 34.6-40.8 34.6h-52c0.2-2.7 0.4-5.3 0.4-8.1 0-48.1-39.1-87.2-87.2-87.2s-87.2 39.1-87.2 87.2c0 2.7 0.2 5.4 0.4 8.1H362.5c0.2-2.7 0.4-5.3 0.4-8.1 0-48.1-39.1-87.2-87.2-87.2s-87.2 39.1-87.2 87.2c0 2.7 0.2 5.4 0.4 8.1h-52c-22.5 0-40.8-15.5-40.8-34.6V751c0-69 61.2-128 139.4-134.3 6.9-0.6 12.7-5.5 14.3-12.3 14.6-62.1 67.5-105.5 128.7-105.5h120.1c61.2 0 114.1 43.4 128.7 105.5 1.6 6.8 7.4 11.7 14.3 12.3C719.4 623 780.7 682 780.7 751v22.9z" p-id="2357"></path><path d="M494.1 546c34.2 0 64.6 25.3 78.8 63.6h-99.1V546h20.3m0-21.3h-41.6v106.2h148.6c-0.8-2-1.4-4-1.9-6.2-12-58.9-55.2-100-105.1-100zM402.8 546v63.6h-99.1c14.1-38.3 44.6-63.6 78.8-63.6h20.3m21.3-21.3h-41.6c-49.9 0-93.1 41.1-105.1 100-0.4 2.2-1.1 4.2-1.9 6.2h148.6V524.7zM747.2 623.4H960v45H747.2z" p-id="2358"></path><path d="M386.1 136.3h45v342.2h-45z" p-id="2359"></path><path d="M510.6 439.7c-6.4 0-12.9-2.3-18.1-6.9-11.2-10-12.2-27.2-2.2-38.4l120.4-135.3c5-5.6 12.1-8.9 19.6-9.1 7.4-0.2 14.8 2.7 20 8l97.4 97.7L868.2 228c10.3-10.9 27.6-11.4 38.5-1.1 10.9 10.3 11.4 27.5 1.1 38.5L768 413.5c-5.1 5.3-12.1 8.4-19.4 8.5-7.2 0.1-14.4-2.8-19.6-8l-96.8-97.1-101.3 113.7c-5.4 6-12.8 9.1-20.3 9.1z" p-id="2360"></path><path d="M920.9 302.9l28.8-121.5-119.6 35.7z" p-id="2361"></path></svg>